# xmcd
#
# Track frame offsets: 
#        150
#        12083
#        25471
#        37841
#        51171
#        64106
#        75182
#        87976
#        100459
#        112758
#        125148
#        138271
#        149870
#        162722
#        176159
#        188947
#        200619
#        215142
#        228762
#        242854
#        253574
#        265884
#        277399
#        290479
#        303003
#
# Disc length: 4186 seconds
#
# Revision: 1
# Processed by: cddbd v1.5.2PL0 Copyright (c) Steve Scherf et al.
# Submitted via: ExactAudioCopy v1.0b1
#
DISCID=79105819
DTITLE=Various Artist - Sonny Terry and Brownie McGhee - Country Blues Troubado
DTITLE=urs 1938-1948 - Disc E
DYEAR=2003
DGENRE=Blues
TTITLE0=Brownie McGhee - Go On Blues
TTITLE1=Brownie McGhee - Auto Mechanic Blues
TTITLE2=Brownie McGhee - I'm Talking About It
TTITLE3=Brownie McGhee - Dollar Bill
TTITLE4=Brownie McGhee - Country Boy Boogie
TTITLE5=Sonny Terry - Harmonica Rag
TTITLE6=Sonny Terry - Screamin' And Cryin' Blues
TTITLE7=Sonny Terry - Beer Garden Blues
TTITLE8=Sonny Terry - Worried Man Blues
TTITLE9=Brownie McGhee - Aunt Jane's Blues
TTITLE10=Brownie McGhee - Mabelle
TTITLE11=Brownie McGhee - So Long Baby
TTITLE12=Brownie McGhee - Poor Boy Blues
TTITLE13=Sonny Terry - Custard Pie Blues
TTITLE14=Sonny Terry - Early Morning Blues
TTITLE15=Sonny Terry - Crow Jane's Blues
TTITLE16=Sonny Terry - Hot-Headed Woman
TTITLE17=Brownie McGhee - Wrong Man Blues
TTITLE18=Brownie McGhee - Married Woman Blues
TTITLE19=Brownie McGhee - Robbie-Doby Boogie
TTITLE20=Brownie McGhee - My Fault
TTITLE21=Brownie McGhee - Brown Mule Blues
TTITLE22=Brownie McGhee - Hard Bed Blues
TTITLE23=Brownie McGhee - My Bulldog Blues
TTITLE24=Brownie McGhee - Gin Headed Woman
EXTD=
EXTT0=
EXTT1=
EXTT2=
EXTT3=
EXTT4=
EXTT5=
EXTT6=
EXTT7=
EXTT8=
EXTT9=
EXTT10=
EXTT11=
EXTT12=
EXTT13=
EXTT14=
EXTT15=
EXTT16=
EXTT17=
EXTT18=
EXTT19=
EXTT20=
EXTT21=
EXTT22=
EXTT23=
EXTT24=
PLAYORDER=
